<svg fill="#820000" version="1.1" xmlns="http://www.w3.org/2000/svg" xmlns:xlink="http://www.w3.org/1999/xlink" x="0px" y="0px"
	 viewBox="0 0 1921.5 841.9" style="enable-background:new 0 0 1921.5 841.9;" xml:space="preserve">
<style type="text/css">
	.st0{fill:#820000;}
	.st1{fill:#820000;}
	.st2{fill:#820000;}
	.st3{fill:#820000;}
	.st4{fill:#820000;}
</style>
<g id="Layer_1">
	<g>
		<path d="M467.5,626.1c-0.6,0.5-1.2,1.3-2,1.6c-1.2,0.4-2.5,0.5-3.8,0.5c-4.5,0.1-9,0.1-13.4,0c-18.2-0.4-36.5-0.9-54.7-1.2
			c-28.5-0.5-56.9-1-85.4-1.5c-58.5-0.8-117.1-1.6-175.6-2.4c-2.9,0-5.8-0.2-8.6-0.5c-0.8-0.1-1.6-0.8-2.6-1.4
			c-0.1-1.9-0.4-3.8-0.4-5.7c-0.1-8.6,0-17.3-0.1-25.9c-0.2-21.8-0.1-43.5-0.7-65.3c-1.5-55.7-2.7-111.3-3.4-167
			c-0.4-31.4-1.1-62.7-1.6-94.1c-0.1-3.5-0.4-7,0.4-10.7c0.4-0.4,0.8-0.8,1.5-1.4c2.1-0.1,4.3-0.2,6.5-0.2c8.3,0.1,16.6,0.2,25,0.5
			c28.5,1.1,56.9,1.2,85.4,1.8c31.3,0.6,62.7,1.1,94,2.2c32.9,1.2,65.9,1.5,98.8,1.7c7,0,14.1,0.1,21.1,0.3c3.5,0.1,7,0.4,10.5,0.8
			c0.9,0.1,1.7,0.7,2.8,1.2c0.3,1.2,0.9,2.4,0.9,3.6c0.2,4.1,0.4,8.3,0.5,12.5c0.1,17.3,0.2,34.6,0.3,51.8c0.1,11.2,0,22.4,0.2,33.6
			c0.1,7.7,0.4,15.3,0.6,23c0.4,14.7,0.7,29.4,1,44.1c1.1,53.1,1.9,106.2,2.5,159.3c0.1,9.6,0.5,19.2,0.6,28.8
			C467.9,619.5,468.2,622.7,467.5,626.1z M447.4,607.2c0.2-1.9,0.5-3.8,0.6-5.7c0.3-7,0.7-14.1,0.8-21.1c0.3-15.4,0.3-30.7,0.6-46.1
			c0.5-31,1.1-62,1.7-93.1c0.2-10.9,0.3-21.8,0.6-32.6c1.3-44.1,1.4-88.3,1.3-132.4c0-2.5-0.1-5.1-0.2-7.4c-0.6-0.8-1-1.3-1.4-1.8
			c-2.7-1.1-5.7-0.7-8.5-0.7c-34.5,0-69.1,0.2-103.6,1.5c-32,1.2-64,1.6-95.9,2.2c-32.3,0.6-64.6,0.8-96.9,2
			c-2.2,0.1-4.5,0.2-6.7,0.3c-1.6,0.1-2.8,1.5-3,3.2c-0.1,1-0.2,1.9-0.2,2.9c-0.1,2.6-0.1,5.1-0.2,7.7c-0.8,33.9-2,67.8-2.1,101.7
			c0,15.4-0.2,30.7-0.7,46.1c-1.2,36.8-1.7,73.6-2.3,110.3c-0.4,19.5-0.3,39-0.4,58.5c0,3.2-0.3,6.4,0.7,9.7
			c0.6,0.5,1.3,1.3,2.1,1.5c1.8,0.4,3.8,0.7,5.7,0.8c6.1,0.1,12.2,0.1,18.2,0c37.7-0.6,75.5-1.3,113.2-1.8
			c35.5-0.5,71-0.8,106.5-1.3c18.9-0.3,37.7-0.8,56.6-1.3c3.2-0.1,6.4-0.3,9.6-0.6C444.8,609.8,445.9,609.2,447.4,607.2z"/>
		<path d="M1710.7,442.5c-0.6,0.3-1.1,0.8-1.7,0.8c-8.6,0.1-17.2,0.1-25.9,0c-0.8,0-1.6-0.8-2.3-1.1c-0.3-0.8-0.6-1.4-0.6-2
			c-0.1-1.9-0.2-3.8-0.2-5.7c0-47.7,0-95.3,0-143c0-2.5-0.3-5.1,0.6-7.6c0.5-0.4,1-0.8,1.4-1.2c5.8-0.5,26.5-0.7,31.6-0.2
			c0.6,0.1,1.2,0.5,2.1,0.9c1.1,2,2.4,4.1,3.6,6.4c14.1,27.2,28.3,54.5,42.4,81.7c1,2,2.2,3.9,3.3,5.8c0.1,0.2,0.5,0.4,0.8,0.4
			c0.7,0.1,1.3-0.3,1.3-1.1c0-3.8-0.2-7.7-0.3-11.5c-0.2-11.2-0.4-22.4-0.4-33.6c-0.1-13.8,0-27.5,0-41.3c0-1.9,0.2-3.8,0.4-5.7
			c0.1-0.7,1.2-1.8,1.9-1.9c0.6-0.1,1.3-0.3,1.9-0.3c8,0,16,0,24,0.1c0.6,0,1.2,0.3,2.1,0.5c0.4,0.6,1.2,1.4,1.3,2.2
			c0.3,2.2,0.4,4.5,0.4,6.7c0,12.2,0,24.3,0,36.5c0,34.2,0,68.4,0,102.7c0,3.5,0.3,7-0.4,10.5c-0.4,0.5-0.8,1-1.4,1.8
			c-1.7,0.1-3.5,0.4-5.4,0.5c-19.6,0.3-21.3,0.2-27.7-0.7c-1.9-1.4-2.7-3.5-3.7-5.5c-6.2-11.9-12.4-23.8-18.6-35.7
			c-8.7-16.7-17.5-33.4-26.2-50.1c-0.6-1.1-1.4-2.1-2.2-3.1c-0.1-0.2-0.6-0.1-0.9-0.1c-0.2,0.5-0.7,1-0.7,1.4c0,2.6,0,5.1,0.1,7.7
			c0.7,13.7,0.7,27.5,0.7,41.2c0,12.8,0,25.6,0,38.4C1711.9,438.9,1712,440.8,1710.7,442.5z"/>
		<path d="M1070.4,443c-6.6,0.5-23,0.7-30.5,0.4c-0.9,0-1.9-0.3-2.5-0.5c-1.4-0.8-2.1-1.9-2.7-3.1c-4-7.7-8-15.3-12-23
			c-10.5-20.1-21-40.3-31.5-60.4c-1.3-2.5-2.3-5.3-4.4-7.3c-0.8-0.1-1.5,0-1.5,0.6c-0.2,1.6-0.4,3.2-0.3,4.7
			c0.8,26.6,0.4,53.1,0.5,79.7c0,2.5,0.2,5.1-0.6,7.6c-0.5,0.4-1,0.9-1.6,1.4c-7.5,0.6-15.2,0.2-22.8,0.3c-1.6,0-3.1-0.2-4.5-0.4
			c-0.6-0.7-1-1.2-1.5-1.7c-0.8-3.4-0.4-7-0.5-10.5c0-37.1,0-74.2,0-111.3c0-9.6,0-19.2,0-28.8c0-1.9,0.1-3.8,0.3-5.7
			c0.1-1.6,1.5-2.8,3.3-2.9c0.6,0,1.3-0.1,1.9-0.1c8.6,0,17.3,0,25.9,0c1,0,1.9,0.2,3.1,0.4c0.7,0.8,1.7,1.7,2.3,2.7
			c1.6,2.8,3,5.7,4.5,8.5c13.8,26.7,27.7,53.4,41.5,80.1c0.6,1.1,1.3,2.2,2.1,3.2c0.4,0.5,1.1,0.4,1.6,0c0.7-2.2,0.4-4.4,0.3-6.7
			c-0.8-26.6-0.4-53.1-0.5-79.7c0-1.9,0.1-3.8,0.4-5.7c0.1-0.6,0.5-1.1,0.8-1.6c0.2-0.3,0.5-0.4,0.7-0.6c0.6-0.2,1.2-0.4,1.8-0.4
			c7.4-0.1,14.7-0.1,22.1-0.1c1.3,0,2.5,0.2,3.7,0.3c0.6,0.6,1.1,1,1.6,1.5c0.2,0.8,0.5,1.8,0.5,2.7c0.1,2.6,0.1,5.1,0.1,7.7
			c0,45.8,0,91.5,0,137.3c0,2.9,0,5.8-0.2,8.6C1071.5,441,1070.9,441.9,1070.4,443z"/>
		<path d="M1233.1,389.5c0.6-0.3,1.1-0.8,1.7-0.8c9.3-0.6,18.5-0.5,27.8,0c0.6,0,1.2,0.5,1.9,0.8c0.3,0.8,0.7,1.6,0.9,2.5
			c0.6,3.1,1,6.3,1.7,9.4c0.4,1.8,1.1,3.7,2,5.3c2.7,5.1,6.9,8.3,12.5,9.6c6,1.3,12.1,1.3,18.1-0.2c2.1-0.5,4.2-1.5,6.1-2.6
			c4-2.4,6.6-5.9,7.7-10.5c0.7-3.2,0.8-6.3,0.3-9.5c-0.8-5.1-3.6-8.8-7.9-11.4c-3.1-1.8-6.4-3-9.8-3.8c-4-0.9-8.1-1.6-12.3-2.2
			c-6-0.9-12-2.1-17.8-3.8c-4.6-1.3-9.1-3.1-13.3-5.4c-10.4-5.8-16.8-14.5-18.7-26.4c-1.3-8-1.4-15.9,0.1-23.8
			c2.1-11.2,7.8-20.1,17-26.8c2.9-2.1,6-3.7,9.2-5.1c7.8-3.1,15.8-5.3,24.2-5.2c4.2,0,8.3,0,12.5,0c7.1,0,13.9,1.6,20.6,3.9
			c13.3,4.6,22.1,13.7,26.2,27.2c2.5,8,3.3,16.3,3.2,24.6c0,1.3-0.5,2.5-1.7,3.5c-0.7,0.1-1.7,0.5-2.6,0.5c-8.3,0-16.6,0-24.9,0
			c-1.3,0-2.5-0.3-3.5-1.3c-1.2-1.6-0.9-3.6-1-5.5c-0.2-3.9-1-7.6-2.3-11.2c-2.7-7.3-8.1-11.3-15.7-12.4c-3.8-0.5-7.7-0.5-11.5,0
			c-3.9,0.5-7.4,1.8-10.5,4.3c-3.7,3-5.8,6.8-6,11.5c-0.1,2.2-0.1,4.5,0.2,6.7c0.5,4.4,2.6,7.8,6.2,10.4c2.4,1.7,5,2.8,7.8,3.6
			c5.5,1.7,11.2,2.6,16.9,3.4c4.5,0.6,8.8,1.4,13.2,2.6c4,1.1,7.9,2.5,11.8,3.9c2.1,0.8,4.1,1.9,6,3c10.1,5.7,16.3,14.4,18.2,25.7
			c1.6,9.8,1.6,19.7-1.3,29.5c-3.1,10.6-9.5,18.7-19,24.3c-6.7,3.9-14,6.2-21.7,7.3c-10.5,1.6-21,1.5-31.5,0
			c-5.1-0.8-10-2.2-14.7-4.2c-11.5-4.9-19.3-13.4-23.5-25.2c-2.8-7.9-3.9-16.1-3.5-24.5C1232.4,390.6,1232.9,390.1,1233.1,389.5z"/>
		<path d="M774.7,283.6c0.7-0.4,1.4-1,2.3-1.2c1.2-0.3,2.5-0.3,3.8-0.3c6.7,0,13.4,0,20.2,0c1.6,0,3.2,0.2,4.8,0.3
			c0.6,0.9,1.3,1.7,1.4,2.5c0.3,2.9,0.4,5.7,0.4,8.6c0,26.6,0,53.1,0,79.7c0,5.4-0.1,10.9,0,16.3c0.1,3.2,0.3,6.4,0.6,9.6
			c0.1,1.3,0.3,2.5,0.6,3.8c1.9,7.2,6.4,11.7,13.7,13.3c6.3,1.4,12.7,1.4,19.1-0.1c6.8-1.5,11.3-5.6,13.4-12.3
			c0.8-2.5,1.3-5,1.4-7.5c0.1-3.5,0.2-7,0.2-10.6c0-30.7,0-61.4,0-92.2c0-3.2-0.3-6.4,0.5-9.7c0.4-0.4,0.9-0.8,1.4-1.2
			c0.6-0.2,1.2-0.4,1.8-0.4c8.3-0.1,16.6-0.1,25-0.1c0.9,0,1.9,0.2,2.5,0.3c1.6,0.7,2.1,1.9,2.2,3.2c0.2,2.2,0.2,4.5,0.2,6.7
			c0,33,0,65.9,0,98.9c0,5.5-0.4,10.9-1.2,16.3c-0.6,4.4-1.9,8.8-3.6,12.9c-3.6,8.6-9.5,15-17.9,19.2c-5.8,2.9-11.9,4.6-18.3,5.5
			c-11.5,1.6-23,1.7-34.4,0c-4.5-0.6-8.8-1.8-13-3.2c-14.3-5-22.5-15.2-25.8-29.7c-1.3-5.6-2-11.3-2-17.1c0.1-7,0-14.1,0-21.1
			c0-27.2,0-54.4,0-81.6C774,289.5,773.6,286.6,774.7,283.6z"/>
		<path d="M1588.6,442.1c-1.3-2.7-1.9-5.9-2.6-9c-1.5-6.6-2.9-13.1-4.4-19.7c-0.4-1.6-0.9-3.1-2.5-4.2c-0.8-0.1-1.7-0.5-2.6-0.5
			c-10.9,0-21.7,0-32.6,0.1c-0.6,0-1.2,0.4-1.8,0.6c-1,0.9-1.6,2-1.9,3.2c-1.5,6.6-2.9,13.1-4.4,19.7c-0.7,3.1-1.5,6.2-2.1,8.8
			c-1,1.7-2.2,2.2-3.5,2.2c-9.9,0-19.8,0-29.7-0.1c-0.6,0-1.2-0.4-2-0.7c-0.1-0.8-0.4-1.7-0.2-2.6c1.5-6.5,3.1-13.1,4.7-19.6
			c4.3-17.4,8.7-34.7,13.1-52.1c5.7-22.6,11.3-45.3,16.9-67.9c1.2-4.7,2.3-9.3,3.4-14c0.4-1.5,1-3,2.4-4c6-0.9,10.4-0.9,37.3-0.7
			c2.2,0,4.5-0.3,6.6,0.8c1.2,0.7,1.6,1.9,2,3.1c1.1,4,2.2,8,3.2,12.1c9.8,39.4,19.6,78.8,29.5,118.2c1.6,6.5,3.3,13,4.9,19.5
			c0.5,2.2,1.4,4.3,1.1,6.6c-0.4,0.4-0.8,1-1.3,1.1c-0.9,0.3-1.9,0.4-2.8,0.4c-8.6,0-17.3,0-25.9,0
			C1591.7,443.5,1590.1,443.3,1588.6,442.1z M1559.3,326.4c-3,13.4-6,26.8-9,40.2c-0.8,3.4-1.4,6.9-2,10.3c-0.1,0.5,0.3,1.2,0.5,1.8
			c4,1.3,4,1.3,18,1.1c1.9,0,3.8,0.1,5.5-1.2c0.2-0.6,0.4-1.2,0.7-2.2c-3.1-15.3-6.7-30.9-10.2-46.5c0.4-1.5,0.3-3-0.3-4.5
			c-0.2-0.5-0.5-1.1-0.9-1.5c-0.5-0.5-1.1-0.5-1.6-0.1C1559.2,324.6,1559.1,325.5,1559.3,326.4z"/>
		<path class="st0" d="M680.7,441.2c-0.4,0.5-0.8,1-1.4,1.8c-1.4,0.1-2.9,0.4-4.5,0.5c-15.2,0.3-19.6,0.2-25.8-0.6
			c-0.4-0.5-0.9-0.9-1.3-1.4c-0.7-3.5-0.4-7-0.4-10.5c0-35.8,0-71.6,0-107.5c0-3.2-0.1-6.4-0.3-9.6c-0.1-0.8-0.9-1.6-1.5-2.5
			c-1.9-0.1-3.8-0.4-5.7-0.4c-7.4,0-14.7,0-22.1-0.1c-1.9,0-3.8-0.3-5.4-0.4c-0.6-0.8-1-1.2-1.5-1.9c-0.6-8.1-0.2-16.4-0.2-24.2
			c0.9-0.9,1.3-1.4,1.8-1.9c0.8-0.1,1.8-0.4,2.7-0.4c33.3,0,66.5,0,99.8,0.1c0.6,0,1.2,0.3,1.8,0.5c0.4,0.5,0.9,0.9,1.2,1.4
			c0.2,0.2,0.3,0.6,0.3,0.9c0.5,8,0.4,15.9,0,23.7c-0.6,0.7-1,1.2-1.7,1.9c-10.9,1.1-22.1-0.2-33.3,0.8c-0.6,0.8-1.4,1.5-1.6,2.3
			c-0.3,2.2-0.4,4.4-0.4,6.7c0,11.5,0,23,0,34.5c0,25.3,0,50.5,0,75.8C681.1,434.3,681.4,437.8,680.7,441.2z"/>
		<path class="st0" d="M1441.3,443c-0.8,0.1-1.7,0.5-2.6,0.5c-8.6,0-17.2,0-25.9-0.1c-0.6,0-1.2-0.4-1.8-0.6c-0.4-0.5-0.7-1-1.3-1.7
			c-0.1-1.4-0.2-3-0.2-4.6c0-50.2,0-100.3,0.1-150.5c0-0.6,0.3-1.2,0.4-1.9c0.4-0.5,0.8-1,1.2-1.4c6.1-0.8,10.6-0.9,25.8-0.6
			c1.6,0,3.1,0.3,4.7,0.5c0.5,1,1.1,1.9,1.2,2.8c0.2,1.9,0.3,3.8,0.3,5.7c0,47.9,0,95.8,0,143.7c0,1.9-0.1,3.8-0.3,5.7
			c-0.1,0.6-0.5,1.2-0.8,1.7C1442,442.5,1441.7,442.7,1441.3,443z"/>
		<path class="st0" d="M1139.1,282.7c0.8-0.2,1.5-0.5,2.1-0.5c8.6,0,17.2-0.1,25.9,0c1.3,0,2.5,0.3,3.6,2c0.1,0.4,0.4,1.3,0.5,2.3
			c0.1,2.2,0.1,4.5,0.1,6.7c0,46.3,0,92.6,0,139c0,3.2,0.2,6.4-0.4,9.6c-0.4,0.4-0.9,0.8-1.3,1.2c-6,0.7-15.7,0.9-26.8,0.5
			c-1.3,0-2.5-0.4-3.6-0.5c-0.5-0.8-0.8-1.3-1.4-2.2c0-2.5-0.2-5.4-0.2-8.2c0-46.6,0-93.3,0-139.9c0-2.5,0.1-5.1,0.4-7.6
			C1138,284.1,1138.8,283.4,1139.1,282.7z"/>
		<path class="st0" d="M1149.7,596.2c-0.4,0.5-0.8,1.2-1.3,1.3c-4.4,1.2-8.8,0.9-13,0.1c-0.5-0.8-1.1-1.3-1.2-1.8
			c-0.3-1.2-0.4-2.5-0.4-3.8c0.1-11.2,0.2-22.4,0.2-33.6c0-0.9-0.2-1.8-0.4-3.2c-0.9,1.1-1.7,1.7-2,2.5c-1.7,5.8-3.3,11.7-5,17.5
			c-1.8,6.5-3.7,12.9-5.5,19.4c-0.4,1.3-1.2,2.2-2.6,3.1c-4.5,0.7-9.2,0.4-13.2,0.1c-2-1.6-2.6-3.1-3-4.6c-2-7.1-3.9-14.2-5.9-21.3
			c-1.2-4.3-2.5-8.6-3.7-12.9c-0.2-0.5-0.6-1-0.9-1.5c-0.3,0-0.7-0.1-0.8,0c-0.2,0.9-0.5,1.8-0.5,2.8c0,9.3,0,18.6,0,27.8
			c0,2.5-0.1,5.1-0.2,7.7c-0.8,0.7-1.5,1.6-2.3,1.7c-4.1,0.8-8.2,0.8-12.2-0.1c-0.5-0.7-0.9-1.1-1.5-1.9c-0.1-1.3-0.3-2.9-0.3-4.5
			c-0.4-25.3-0.2-60.9,0.4-69.1c0.3-0.5,0.7-1.1,1-1.6c0.6-0.2,1.2-0.6,1.8-0.7c5.8-0.1,11.5-0.1,17.3-0.1c0.9,0,1.8,0.4,2.9,0.6
			c0.5,0.8,1.2,1.5,1.5,2.3c1.2,3.7,2.3,7.3,3.3,11c2.5,8.9,5,17.9,7.5,26.8c0.3,1.2,0.8,2.4,1.3,3.6c0.2,0.6,0.8,1,1.5,0.9
			c0.2,0,0.6-0.2,0.7-0.4c0.8-2.1,1.6-4.2,2.2-6.3c2.8-9.8,5.5-19.7,8.2-29.6c0.7-2.5,1.5-4.9,2.2-7.4c0.9-0.5,1.6-1.2,2.5-1.3
			c6.4-0.6,12.8-0.6,19.1,0c0.8,0.1,1.6,0.9,2.6,1.4c0.1,1.9,0.3,3.8,0.4,5.7C1150.6,564.5,1150.4,587.9,1149.7,596.2z"/>
		<path class="st0" d="M731.7,600c-1.7,0.2-2.4,0.2-3,0.3c-6.7,0.7-12.6-1.6-18.3-4.6c-4.1-2.1-7-5.5-9.1-9.5
			c-2.1-4-3.3-8.3-3.9-12.8c-1.2-9.9-1.2-19.7,0.1-29.6c0.5-4.1,1.7-8.1,3.6-11.9c3.2-6.3,8.2-10.5,15.1-12.3
			c6.9-1.9,13.9-1.8,20.8,0.1c5.8,1.6,10.4,4.8,13.5,10c1.9,3,3.3,6.2,4,9.7c0.6,2.8,1.2,5.6,1.4,8.5c0.7,9.9,0.9,19.8-1.2,29.6
			c-0.7,3.2-1.8,6.1-3.3,8.9c-2.6,5-6.5,8.6-11.8,10.7C737,598.2,734.3,599.1,731.7,600z M739.8,559.3c-0.2-4-0.4-7.8-0.6-11.7
			c-0.2-2.6-0.8-5-1.8-7.4c-2.2-5.5-5.8-7.8-11.8-7.6c-0.3,0-0.6,0-0.9,0.1c-3.8,0.4-6.6,2.2-8.4,5.5c-0.9,1.7-1.6,3.5-2,5.3
			c-2,10.1-2,20.2-0.1,30.3c0.3,1.8,1.1,3.7,1.9,5.4c1.8,3.7,5,5.6,9.1,5.9c0.9,0.1,1.9,0,2.9-0.1c3.8-0.3,6.6-2.2,8.4-5.5
			c1.4-2.5,2.4-5.2,2.6-8.1C739.4,567.4,739.6,563.2,739.8,559.3z"/>
		<path class="st0" d="M1305.9,568.2c0.6,1.8,0.9,3,1.4,4.2c2.4,5.9,4.8,11.8,7.2,17.8c0.7,1.8,1.3,3.6,1.8,5.4
			c0.1,0.5-0.4,1.1-0.7,2c-4.9,1.1-9.9,0.5-14.9,0.3c-1-1.8-1.9-3.1-2.5-4.5c-2.1-5.3-4.1-10.7-6.2-16.1c-0.8-2.1-1.8-4.1-2.5-5.8
			c-2.7-1.9-5-1.8-7.4-0.5c-0.8,1.2-1.1,2.4-1.1,3.7c0,5.4,0,10.9-0.1,16.3c0,1.9-0.3,3.8-0.5,5.5c-0.8,0.6-1.3,1-2,1.5
			c-4.1,0-8.6,1.2-12.8-1c-0.3-1.1-0.7-2-0.7-2.9c-0.1-1.9-0.1-3.8-0.1-5.7c0-19.5,0-39,0-58.5c0-2.8-0.4-5.7,0.7-8.5
			c0.5-0.4,1-0.8,1.5-1.2c0.6-0.1,1.3-0.3,1.9-0.3c8,0,16-0.1,24,0c4.2,0,8.3,0.7,12.2,2.3c6,2.5,10,6.9,11.5,13.2
			c1.6,6.3,1.5,12.7,0.1,19c-0.9,3.8-2.7,7.2-5.7,9.8C1309.4,565.2,1308,566.5,1305.9,568.2z M1283,555.5c3.3,0.8,6.7,0.6,10.2,0.2
			c0.3,0,0.6-0.1,0.9-0.2c3.3-0.9,5.5-2.9,6.5-6.3c0.9-3.1,0.8-6.2-0.2-9.3c-0.8-2.6-2.6-4.3-5.1-5.3c-0.9-0.3-1.8-0.7-2.7-0.7
			c-2.8-0.1-5.7-0.1-8.5,0c-1.4,0-2.9,1.6-3,3.2c-0.2,5.7-0.5,11.3,0.2,16.8C1281.9,554.5,1282.3,554.9,1283,555.5z"/>
		<path class="st0" d="M1701.5,569.4c3.2,8.9,7.2,17.6,10.5,26.4c-0.6,0.8-1,1.3-1.4,1.7c-6.7,0.9-7.5,0.9-14.2,0
			c-1.5-0.9-2.2-2.3-2.8-3.8c-2-5.4-4.1-10.8-6.2-16.1c-0.8-2.1-1.7-4.1-2.5-5.9c-2.4-2.2-4.9-1.9-7.3-1.1c-1.1,1-1.3,2.2-1.4,3.5
			c-0.1,5.1,0,10.2-0.1,15.3c0,2.2-0.2,4.4-0.3,6.7c-0.9,0.6-1.6,1.4-2.4,1.6c-3.8,0.8-7.6,0.3-11.3,0.2c-0.7-1-1.5-1.7-1.7-2.6
			c-0.3-1.2-0.4-2.5-0.4-3.8c0-21.7,0-43.5,0-65.2c0-1.6,0.3-3.2,0.6-4.7c0.1-0.5,0.8-0.9,1.2-1.4c0.6-0.2,1.2-0.5,1.8-0.5
			c8.6,0,17.3-0.1,25.9,0c3.9,0,7.6,0.9,11.2,2.5c5,2.1,8.5,5.7,10.3,10.8c0.8,2.1,1.3,4.3,1.5,6.5c0.2,3.5,0.3,7,0,10.5
			c-0.4,6-2.8,11.1-7.6,14.9c-1,0.8-2,1.6-2.9,2.5C1701.8,567.9,1701.7,568.7,1701.5,569.4z M1676.5,553.9c0.9,0.8,1.1,1.2,1.4,1.2
			c4.1,1.3,8.2,1.1,12.2,0c2.6-0.7,4.4-2.5,5.4-5.1c1.2-3.1,1.3-6.2,0.4-9.4c-1-3.5-3.8-6.2-7.4-6.7c-3.5-0.5-7-0.6-10.4,0.1
			c-0.6,0.5-1,0.9-1.8,1.6C1676.2,541.7,1676,547.7,1676.5,553.9z"/>
		<path class="st1" d="M1796.4,545c-0.8,0.8-1.2,1.3-1.6,1.7c-9.1,1-10.1,1-14-0.8c-1.1-1.6-0.8-3.7-1.5-5.5c-0.6-1.5-1.2-3-2.1-4.2
			c-0.7-1-1.8-1.9-2.9-2.4c-4.3-1.9-8.7-1.7-12.9,0.5c-0.8,0.4-1.4,1.3-2.4,2.1c-0.4,1.3-1.1,2.8-1.3,4.3c-0.4,4.3,1.7,7.8,5.6,9
			c3.3,1,6.8,1.8,10.2,2.4c3.1,0.6,6.3,1.1,9.3,2.3c1.2,0.5,2.4,0.9,3.5,1.5c5.5,2.7,9,7.1,10.1,13.2c0.8,4.4,0.8,8.9-0.3,13.3
			c-1.6,6.3-5.4,10.9-11.2,13.6c-3.5,1.6-7.1,2.9-10.8,3.8c-2.4,0.6-5.1,0.6-7.6,0.5c-6.2-0.5-11.8-2.6-17-6c-3.3-2.2-5.5-5.3-6.9-9
			c-1.4-3.6-2.1-7.4-1.7-11.2c0.1-0.8,0.9-1.6,1.3-2.2c8.4-0.8,8.4-0.8,13.4,0.4c1.6,1.7,1.4,4.1,2.3,6.2c1.8,4.3,5.1,6.4,9.6,6.7
			c2.6,0.1,5.1-0.1,7.5-1.2c3.2-1.5,4.9-4,5.1-7.5c0.1-0.9,0-1.9-0.2-2.9c-0.3-2-1.3-3.6-3-4.7c-1.8-1.3-3.9-2.2-6.1-2.6
			c-3.4-0.7-6.9-1.3-10.4-2c-3.2-0.6-6.2-1.6-9.1-3c-2.3-1.1-4.3-2.7-6-4.7c-2.1-2.5-3.6-5.3-3.9-8.6c-0.3-2.5-0.4-5.1-0.3-7.6
			c0.3-9.7,5.1-16.4,14-19.7c9.3-3.5,18.8-3.3,28.1,0.2c5.3,2,9,6,11,11.4C1795.9,536.5,1796.4,540.9,1796.4,545z"/>
		<path class="st1" d="M988.3,520.1c3.9-0.6,8.3-0.8,12.4,0.2c0.5,0.8,1.1,1.3,1.2,1.8c0.2,1.6,0.4,3.2,0.4,4.8
			c0,21.4,0,42.9,0,64.3c0,1.9,0.2,3.8-1,5.8c-0.7,0.3-1.5,0.9-2.4,1c-3.5,0.4-7,0.4-10.7-0.2c-0.5-0.6-1.3-1.3-1.5-2.1
			c-0.4-1.5-0.5-3.1-0.5-4.7c-0.1-6.1,0-12.2-0.1-18.2c0-1.9-0.2-3.8-0.3-5.4c-0.6-0.7-1.1-1.2-1.5-1.7c-6.1-0.6-12.1-0.6-18.2,0
			c-0.6,0.1-1.1,0.6-1.9,1c-1.4,4.9-0.6,10-0.8,15.1c-0.2,4.8,0.3,9.6-0.4,14.5c-0.7,0.6-1.4,1.5-2.2,1.7c-3.8,0.8-7.6,0.8-11.4,0
			c-0.8-0.2-1.5-1-2.3-1.6c-0.1-2-0.2-3.9-0.2-5.8c0-20.8,0-41.6,0-62.4c0-1.9,0.1-3.8,0.4-5.7c0.1-0.6,0.6-1.1,1-1.6
			c0.3-0.1,0.6-0.3,0.9-0.4c3.8-0.9,7.6-0.6,11.4-0.3c1,0.1,2.4,1.5,2.5,2.6c0.1,1.6,0.3,3.2,0.3,4.8c0,5.4,0,10.9,0,16.3
			c0,1.9,0.3,3.8,0.5,5.5c0.7,0.6,1.2,1,1.9,1.6c6.2,0.4,12.5,0.7,18.9-0.2c0.5-1,1.2-1.8,1.2-2.7c0.2-2.9,0.3-5.7,0.3-8.6
			c0.1-5.1,0.1-10.2,0.2-15.3C986.3,522.5,986.7,521.3,988.3,520.1z"/>
		<path class="st1" d="M800.7,520.7c0.3,0.8,0.8,1.7,0.9,2.6c0.2,2.9,0.2,5.7,0.2,8.6c0,12.1,0,24.3,0,36.4c0,3.2,0.2,6.4,0.6,9.5
			c0.5,3.5,2.8,5.7,6.1,6.7c3.1,1,6.3,1,9.5,0.2c3.4-0.8,5.6-2.9,6.6-6.3c0.4-1.5,0.7-3.1,0.8-4.7c0.1-2.5,0.1-5.1,0.1-7.7
			c0-11.8,0-23.6,0-35.5c0-2.9,0.1-5.7,0.2-8.3c0.6-0.8,1-1.3,1.5-2c4-1.1,8.1-0.6,11.7-0.4c1.8,0.7,2.5,1.7,2.6,3
			c0.2,2.2,0.3,4.5,0.3,6.7c0,13.4,0,26.8,0,40.2c0,3.5-0.3,7-0.5,10.5c-0.1,2.3-0.9,4.4-1.7,6.4c-1.6,4-4.4,7.1-8.3,9
			c-6.7,3.3-13.7,5.4-21.3,4.4c-5.4-0.7-10.6-2.4-15.3-5.2c-3.4-2-5.7-5.1-7.1-8.8c-1.1-3-1.9-6.1-2-9.3c-0.1-2.2-0.2-4.5-0.2-6.7
			c0-13.7,0-27.5,0-41.2c0-2.2,0.2-4.5,0.3-6.7c0.1-1,1.5-2.4,2.6-2.4c3.5-0.1,7-0.1,10.5,0C799.4,519.9,800,520.4,800.7,520.7z"/>
		<path class="st0" d="M1236.6,595.5c-0.2,0.6-0.5,1.2-0.8,1.9c-4.6,1.6-9.3,0.4-13.5,0.7c-1-0.8-1.5-1.2-2.2-1.8
			c-1.6-4.3-2-9.1-3.8-13.6c-0.9-0.5-1.8-1.2-2.6-1.2c-5.1-0.3-10.2-0.6-15.3,0.2c-0.5,0.5-0.9,0.9-1.5,1.5c-1.1,4.3-2.1,8.6-3,12.1
			c-1.1,2-2.3,2.6-3.6,2.7c-3.8,0.3-7.6,0.3-11.2-0.1c-2-0.8-2.4-2.3-2.1-4c1.1-5,2.4-9.9,3.6-14.9c4.2-17,8.5-34.1,12.7-51.1
			c0.5-2.2,1.2-4.3,1.8-6.5c0.8-0.5,1.5-1.4,2.3-1.5c6-0.8,12.1-0.6,18.1-0.1c0.8,0.1,1.6,0.8,2.3,1.2
			C1220.1,527.5,1234.9,587,1236.6,595.5z M1212.6,564.9c-2.8-15.4-3.1-16.8-5.8-22.2c-0.3,0.2-0.6,0.3-0.7,0.6
			c-0.4,0.8-0.9,1.7-1.2,2.6c-2.6,9.6-3.2,13-3.7,19.9c0.6,0.4,1.3,1.2,2.2,1.4c2.5,0.6,5.1,0.5,7.8-0.2
			C1211.5,566.3,1212.1,565.6,1212.6,564.9z"/>
		<path class="st0" d="M1369.9,568.3c-0.5,0.3-1.2,0.6-1.6,1c-1.8,1.9-3.2,4-4.4,6.6c-0.7,6.7,0.2,13.8-0.6,20.3
			c-1,0.8-1.5,1.1-2,1.5c-9.5,0.7-9.5,0.7-13.1-1.1c-0.2-0.8-0.6-1.8-0.6-2.7c-0.1-2.6-0.1-5.1-0.1-7.7c0-18.2,0-36.4,0-54.6
			c0-2.6,0-5.1,0.1-7.7c0.1-2.8,1.3-4.1,4.1-4.2c3.5-0.1,7-0.5,10.6,0.6c0.4,0.8,1.1,1.7,1.1,2.5c0.2,2.9,0.2,5.7,0.3,8.6
			c0.1,4.8,0.1,9.6,0.1,14c1,1.2,2.1,1.2,2.6,0.4c4-6.2,7.9-12.4,11.8-18.6c1.5-2.4,2.8-5,5.3-7.1c3.9-1.1,8.1-0.5,12.2-0.6
			c1.6,0,3.2-0.1,4.7,0.8c0.1,0.6,0.4,1.4,0.2,1.8c-1.1,2-2.2,3.9-3.5,5.7c-4.3,6.3-8.8,12.6-13.1,18.9c-0.9,1.3-1.6,2.7-2.2,3.6
			c-0.3,2.3,0.6,3.7,1.2,5.1c4.4,9.6,8.9,19.1,13.4,28.6c1.8,3.8,3.5,7.5,5.1,11.1c-0.3,0.9-0.5,1.5-0.8,2.3
			c-4.9,0.9-10,0.8-14.7,0.1c-1.7-1.2-2.5-2.6-3.1-4c-3.2-7-6.3-14-9.5-21c-0.5-1.2-1.1-2.3-1.8-3.4
			C1371.1,568.9,1370.4,568.7,1369.9,568.3z"/>
		<path class="st2" d="M1582.9,596.5c-0.2-0.9-0.5-1.5-0.5-2.1c0-23.3-0.1-46.7-0.1-70c0-0.9,0.3-1.9,0.4-3c0.7-0.5,1.5-1.1,2.3-1.4
			c0.9-0.3,1.9-0.3,2.8-0.3c12.1,0,24.3,0,36.4,0c1.3,0,2.6,0.2,3.8,0.5c0.6,0.1,1,0.7,1.6,1.2c0.8,3.3,0.6,6.8,0.2,10.1
			c-0.5,0.6-1,1.1-1.6,1.8c-9,1.1-18.3-0.1-27.5,0.7c-0.6,0.8-1.5,1.4-1.7,2.3c-0.9,4.4-0.8,8.8,0.1,13c0.7,0.5,1.3,0.9,1.8,1.3
			c3.7,0.6,7.6,0.2,11.4,0.3c3.5,0.1,7-0.3,10.6,0.5c0.5,0.7,1.3,1.4,1.5,2.3c0.7,3.1,0.6,6.3,0,9.3c-0.5,0.6-1,1-1.5,1.6
			c-1.5,0.1-3.1,0.4-4.7,0.4c-3.2,0.1-6.4,0.1-9.6,0c-10.7,0-10.3-0.1-10.2,10.8c0,2.2-0.3,4.5,1.1,6.7c0.7,0.3,1.5,0.9,2.4,0.9
			c4.1,0.2,8.3,0.2,12.5,0.2c4.5,0.1,8.9-0.3,13.3,0.3c0.6,0.4,1.1,0.8,1.8,1.3c1,3.9,0.7,7.9,0.1,11.2c-2.2,1.7-3.8,1.6-5.4,1.6
			c-10.2,0-20.5,0.1-30.7,0c-2.9,0-5.7-0.1-8.6-0.4C1584.3,597.7,1583.5,596.9,1582.9,596.5z"/>
		<path class="st2" d="M1476.4,520.1c0.6,0.6,1,1.1,1.6,1.7c0.4,3.4,0.7,6.8-0.2,10.4c-0.8,0.4-1.6,1.1-2.5,1.3
			c-1.6,0.3-3.2,0.3-4.8,0.3c-5.4,0-10.9,0-16.3,0c-1.9,0-3.8,0.2-5.5,0.3c-0.6,0.7-1.1,1.2-1.6,1.8c-0.8,4-0.7,8.1-0.1,12.2
			c0.1,0.8,0.9,1.6,1.3,2.2c2.4,0.9,4.7,0.7,6.9,0.7c4.2,0.1,8.3,0,12.5,0.1c1,0,1.9,0.2,2.9,0.3c0.9,0.1,2.3,1.6,2.4,2.7
			c0.3,3.2,0.4,6.3-0.3,9.5c-1,0.5-1.8,1.2-2.6,1.3c-3.2,0.2-6.4,0.2-9.6,0.3c-3.5,0.1-7,0.1-10.5,0.3c-0.9,0-1.7,0.7-2.4,1.1
			c-1.1,5.6-1.2,7.5-0.3,15.3c0.7,1.3,1.8,1.8,3.1,1.9c5.4,0.1,10.9,0.1,16.3,0.2c3.2,0,6.4-0.3,9.5,0.4c0.5,0.4,1,0.8,1.7,1.3
			c0.8,3.6,0.8,7.4,0,11c-0.7,0.5-1.2,0.9-2,1.4c-1.4,0.1-2.9,0.3-4.5,0.3c-11.2,0-22.4,0-33.6,0c-1.6,0-3.2-0.2-4.8-0.4
			c-0.6-0.1-1.1-0.6-1.6-0.9c-0.2-0.6-0.7-1.1-0.7-1.7c-0.1-1.9-0.2-3.8-0.2-5.7c0-20.2,0-40.3,0-60.5c0-2.5-0.2-5.1,0.5-7.4
			c0.7-0.6,1.1-1.2,1.7-1.3c1.2-0.3,2.5-0.5,3.8-0.5c12.2,0,24.3,0,36.5,0C1474,519.7,1475.3,520,1476.4,520.1z"/>
		<path class="st1" d="M612.1,520.7c2.6-1.6,5.6-0.9,8.4-0.9c2.5,0,5.1-0.6,7.2,0.9c1.5,1.3,2,2.8,2.5,4.3
			c2.6,6.9,5.1,13.8,7.7,20.6c0.6,1.5,1.3,2.9,2.2,4.2c0.2,0.3,1.1,0.2,1.9,0.3c2.7-4.7,3.9-10,6-15c1.9-4.7,3.3-9.7,5.7-14.4
			c4.9-2,10-0.5,14.4-1.1c2.1,0.9,2.4,2,2,3.4c-0.3,0.9-0.6,1.8-1,2.7c-5.8,14.2-11.7,28.4-17.5,42.6c-0.7,1.8-1.4,3.6-2.2,5.4
			c-0.9,7.6,0.4,15.3-0.8,22.7c-0.7,0.6-1.2,1-1.8,1.5c-3.7,0.6-7.5,0.5-11.3,0c-0.9-0.1-2.4-1.7-2.5-2.6c-0.1-1.9-0.2-3.8-0.2-5.7
			c0-4.8,0-9.6,0-13.3c-0.9-4.9-2.6-8.3-4.1-11.8c-5-12.1-10-24.2-15-36.3c-0.7-1.8-1.4-3.6-1.9-5.4
			C611.8,522,612.1,521.3,612.1,520.7z"/>
		<path class="st1" d="M1522.6,597.7c-0.5-0.4-1-0.8-1.5-1.2c-1-2.5-0.7-5-0.7-7.6c0-15.4,0-30.7,0-46.1c0-2.2-0.3-4.5-0.4-6.7
			c-0.1-0.8-1.1-1.9-1.9-2c-0.9-0.2-1.9-0.4-2.8-0.4c-2.6-0.1-5.1,0-7.7-0.1c-1.3,0-2.5-0.3-3.6-0.4c-0.6-0.7-1-1.2-1.4-1.7
			c-0.7-7.8-0.7-7.8,1-11.1c0.6-0.2,1.2-0.6,1.8-0.6c14.4-0.1,28.8-0.2,43.2-0.2c1.6,0,3.2,0.3,4.5,0.4c0.6,0.7,1,1.1,1.6,1.7
			c0.4,3.3,0.7,6.8-0.2,10.4c-0.9,0.5-1.7,1.2-2.5,1.3c-2.5,0.2-5.1,0.2-7.7,0.3c-1.9,0-3.8-0.1-5.9,0.6c-0.4,0.7-1.2,1.4-1.4,2.2
			c-0.3,2.2-0.4,4.5-0.4,6.7c0,14.1,0,28.2,0,42.2c0,2.9,0,5.8-0.1,8.6c-0.1,2.6-1.5,3.9-4.3,4
			C1529,598.2,1525.7,598.5,1522.6,597.7z"/>
		<path class="st3" d="M868.8,533.1c-0.4-0.7-1.2-1.4-1.3-2.3c-0.6-3.2-0.6-6.3,0.2-9.4c0.5-0.5,1-0.9,1.5-1.3
			c7.4-0.7,23.9-0.9,44-0.5c1.6,0,3.2,0.3,4.5,0.4c0.6,0.7,1,1.1,1.6,1.7c0.4,3.4,0.7,6.8-0.2,10.4c-0.8,0.5-1.6,1.2-2.4,1.3
			c-2.5,0.2-5.1,0.2-7.6,0.3c-1.9,0.1-3.8-0.2-5.9,0.7c-0.3,0.6-1.1,1.3-1.2,2.1c-0.3,2.5-0.4,5.1-0.4,7.6c0,14.4,0,28.7,0,43.1
			c0,2.9,0.3,5.7-0.5,8.7c-0.6,0.6-1.2,1.2-1.8,1.8c-9.8,0.7-9.8,0.7-13.2-1.1c-1-1.8-0.8-3.7-0.8-5.6c0-13.7,0-27.4,0-41.2
			c0-3.5,0-7,0-10.5c0-1.3-0.3-2.5-0.4-3.8c-0.5-0.5-1-1-1.3-1.3C878.5,533.1,873.6,534.5,868.8,533.1z"/>
		<path d="M1562.8,330c-1.2-1.2-2.3-2.4-3.5-3.6c-0.2-0.9-0.1-1.8,0.6-2.4c0.5-0.4,1.1-0.4,1.6,0.1c0.4,0.4,0.7,1,0.9,1.5
			C1563.1,327,1563.2,328.5,1562.8,330z"/>
		<path d="M345.7,359l0.1-0.1"/>
		<path d="M357.2,349.4l0.1-0.1c1.4,0.4,2.6,0.9,3.7,1.8l0,0c-0.7,0.6-1.4,1.2-2,1.8l0,0c-0.6,0.6-1.3,1.2-1.9,1.8l-0.1,0
			c-0.6,0.6-1.3,1.2-1.9,1.8l-0.1,0.1c-0.6,0.6-1.2,1.1-1.9,1.7l-0.2,0.2c-0.6,0.6-1.2,1.2-1.8,1.7l-0.2,0.2
			c-0.6,0.6-1.2,1.1-1.7,1.7l-0.2,0.2c-0.5,0.5-1.1,1.1-1.6,1.6c-4,4.1-8.1,8.2-12.1,12.2c-1.1,1.1-2.4,2.1-2.9,3.7
			c-2.6,2.3-5.3,4.7-7.9,7c-7,6.1-13.8,12.4-20.9,18.3c-6.1,5.2-12.7,9.7-19.8,13.5c-4.8,2.6-9.8,4.7-15.1,6.1
			c-0.9,0.2-1.9,0.5-2.8,0.6c-8.1,1.4-15.4-4.1-16.5-12.3c-0.4-3.2,0.1-6.4,1.2-9.4c1.7-4.5,4.1-8.7,6.8-12.6
			c4.2-6,8.9-11.7,14.2-16.8c5.1-4.9,10.1-9.8,15.3-14.5c11.6-10.5,23.3-21,34.9-31.5c2.6-2.4,5.4-4.6,7.4-7.4
			c0.6-0.8,0.6-1.5-0.4-3.7c-5.9-1-12-0.7-18,0c-1.9,0.2-3.8,0.7-5.7,1.1c-5.5,1.2-10.2,3.6-14,7.7c-1.7,1.9-3.6,3.7-5.3,5.6
			c-11.1,12.4-22.1,24.8-33.2,37.3c-4.2,4.8-8.4,9.6-12.6,14.5c-6.5,7.5-12.4,15.4-18.3,23.4c-4.4,5.9-8.5,12-12.1,18.4
			c-0.8,1.4-1.9,2.6-3.7,2.9c-3-0.7-4.8-2.9-6.2-5.5c-1.2-2.3-1.5-4.9-1-7.5c0.5-2.5,1.3-4.9,2.5-7.2c2.6-5.1,5.8-9.9,9.4-14.5
			c4.5-5.8,9.4-11.3,14.6-16.6c2.5-2.5,5-5,7.4-7.5c4.7-4.8,9.2-9.7,13-15.3c5.4-7.9,11.9-15,18.6-21.9c1.8-1.8,3.4-3.8,5-5.8
			c0.3-0.4,0.3-1.2,0.3-1.7c0-0.7-1.4-1.6-2.2-1.5c-0.3,0-0.7-0.1-1,0c-5,1.2-10.1,1.6-15.2,2c-10.5,1-21,1.9-31.5,2.7
			c-3.8,0.3-7.7,0.5-11.6-0.2c-3.5-1.5-6.5-3.9-9-6.8c-0.9-1-1.4-2.1-1.2-3.5c0.9-2.2,2.9-3.3,4.9-4.2c2-0.9,4.2-1.7,6.3-2.3
			c3.3-1.1,6.7-2,9.7-2.9c3.3,0.4,6.1,0.9,9,1c3.2,0.1,6.3-0.6,9.5-1.2c12.9-2.4,25.8-4.6,38.9-5.9c17.5-1.7,35.1-2.2,52.7-0.8
			c7.3,0.6,13.6,3.2,19.3,7.7c1,0.8,1.8,1.8,2.6,2.8c0.6,0.7,0.6,1.1,0.3,3.7c-1.2,0.9-2.4,1.9-3.6,2.9c-0.4,0.5-0.9,1-1.1,1.6
			c-1.5,3.9-3.6,7.5-6.2,10.8c-3.7,4.4-7.2,9-11.1,13.2c-9.3,10.2-19.3,19.6-29.7,28.6c-9.3,7.9-17.9,16.4-26.5,25
			c-3.2,3.2-5.8,6.8-7.6,11c0.1,1,0.2,1.9,0.3,2.9c0.8,0.5,1.6,1,2.5,1.7c1.4-0.5,3-0.8,4.4-1.6c3.9-2.2,7.8-4.3,11.6-6.8
			c13.5-8.7,26.3-18.3,38.9-28.1c5.6-4.3,11-8.7,16.6-13.1"/>
		<path d="M353.1,352.9c1-0.3,1.7-0.9,2.1-1.8"/>
		<path d="M351,354.7"/>
		<path d="M348.9,356.5"/>
		<path class="st0" d="M363.2,477.4c-13.7,13-27.3,26-40.9,39.1c-14.1,13.5-27.4,27.8-39.4,43.1c-2.6,3.3-5.3,6.4-8,9.5
			c-0.6,0.7-1.4,1.3-2.1,2c-1.6,1.5-3.8,1.1-4.9-0.7c-2.2-3.7-2.9-7.8-2.3-12c0.2-1.6,0.7-3.1,1.1-4.7c1.5-5.6,3.7-10.9,6.1-16.1
			c7.9-17.1,16.9-33.7,27.4-49.5c0.5-0.8,0.9-1.7,1.4-2.5c1-0.4,1.5-1.1,1.6-2.2l0.1-0.1c1.4-0.7,2.2-1.8,2.4-3.4l-0.1,0.1
			c1.1-0.3,1.6-1.1,1.8-2.2l0,0c1-0.3,1.6-1,1.7-2.1l0.1-0.1c2-1.3,3-3.2,3.7-5.3c0.2-0.7,0.1-1.4-0.5-1.7c-0.5-0.2-1.2-0.2-1.7,0.1
			c-1.5,0.7-2.6,1.8-3.1,3.4l0,0c-0.9,0-1.5,0.6-1.9,1.9l-0.1,0.1c-0.9,0-1.5,0.6-1.8,1.9l-0.1,0.1c-0.9,0-1.5,0.6-1.8,1.9l-0.1,0.1
			c-0.8,0-1.4,0.6-1.8,1.8l-0.1,0.1c-0.9,0-1.4,0.5-1.7,1.7c-3.1,3.2-6.2,6.4-9.2,9.7c-13.2,14.4-26.2,28.9-39.5,43.2
			c-9.2,9.8-18.8,19.2-28.3,28.7c-2,2-4.2,4-6.3,5.9c-3.8,3.6-8,6.3-13.2,7.5c-4,0.9-7.6,3.4-11.8,3.9c-1.4-1.2-1.5-2-0.5-3
			c3.1-3.3,6.1-6.6,9.3-9.7c19.5-19,38.9-38,58.5-56.8c12.9-12.4,26-24.6,39.2-36.8c5.6-5.2,11.5-10.2,17.3-15.2
			c3.2-2.7,6.5-5.1,9.9-7.6c3.1-2.3,6.5-4.1,10.1-5.5c2.4-0.9,4.9-1.5,7.5-1c0.5,0.1,0.9,0.7,1.3,1.1c-0.1,0.6,0,1.4-0.3,1.8
			c-6.6,9.8-13.3,19.6-20,29.3c-4.2,6.1-7.9,12.4-11.5,18.8c-3.9,7-7.7,14-11.5,21c-0.6,1.1-1,2.4-1.2,3.6c-0.1,0.8,0.4,1.6,0.7,2.4
			c1.7,0.1,2.7-0.7,3.7-1.5c5.7-4.7,11.3-9.4,16.9-14.2c13-11.3,25.9-22.8,39-34.1c5.3-4.6,10.8-9.1,16.2-13.5
			c4.2-3.4,8.7-6.6,13.1-8.6c5.4-1.8,10.7-1.3,14.4-4.2c1.5,0.3,2.2,0.2,2.7,0.5c0.7,0.5,1.4,1.2,1.9,2c0.3,0.5,0,1.2,0,2.3
			c-0.8,1.2-1.7,2.9-2.9,4.4c-7,9.5-14.3,18.8-22.2,27.7c-17,19.1-33.2,38.9-47.9,59.9c-3.1,4.5-6.2,8.9-8.7,13.7
			c-3.5,6.8-5,13.8-3.5,21.3c0.5,2.8,0.9,5.7,1.3,8.5c-0.7,0.9-1.1,1.8-1.8,2.3c-1,0.8-2.4,0.9-3.7,0.7c-3.8-0.6-6.5-2.7-7.8-6.3
			c-2.9-7.9-2.5-20.4,0.9-28.2c2.7-6.2,6.1-11.9,9.9-17.5c4.7-6.9,9.8-13.5,15-19.9c10.8-13.1,22.1-25.7,33.4-38.3
			c2.6-2.9,5-5.8,7.4-8.8c3.1-2.2,5.4-5.2,7.1-8.6c0.3-0.7,0.1-1.3-0.6-1.6c-0.3-0.1-0.6-0.2-0.9-0.1"/>
		<path class="st0" d="M353.5,366.3c3.7-3.8,7.4-7.6,11.1-11.5c1.3-1,2-2.4,1.9-4.1c-0.2-0.3-0.2-0.6-0.1-0.9
			c-1.3-1.6-2.5-3.2-3.8-4.9c1.1-1.1,2.1-2.4,3.3-3.4c13.8-11.9,27.8-23.6,41.2-36c1.4-1.3,2.9-2.4,4.8-3.2c1.9-0.8,3.7-0.6,5.4,0.6
			c1.3,0.9,1.8,3,1,4.2c-0.7,1.1-1.4,2.2-2.2,3.1c-3.1,3.6-6.2,7.3-9.5,10.8c-16.8,18.1-32.1,37.3-46.9,57
			c-11.9,15.9-23.6,31.8-35,48.1c-10.1,14.4-21.8,27.6-34.6,39.7c-6.5,6.1-13.7,11.5-21.4,16.2c-5.5,3.3-11.2,6.2-17.3,8.2
			c-4.6,1.5-9.2,2.7-14.1,2.4c-3.6-0.2-6.7-2.4-8-5.9c-0.8-2.2-1-4.4-0.5-6.6c0.5-2.5,1.4-4.9,2.7-7.1c2.1-3.6,4.7-6.9,7.6-9.8
			c3.4-3.4,7-6.5,11-9.3c4.7-3.3,9.5-6.5,14.8-8.9c1.4,0.4,2.9,0.8,3.9,2.1c-6.3,5.8-12.7,11.6-18.9,17.5
			c-5.8,5.5-10.8,11.6-14.9,18.6c-0.4,2.1-0.1,3.8,2.8,4.4c0.9-0.4,2.1-0.8,3.1-1.5c2.6-1.8,5.2-3.7,7.6-5.8
			c11-9.3,21.2-19.3,30.4-30.4c2.6-3.2,5-6.6,8.1-10.7c4.3-3.7,8.6-8.8,13.1-13.8c14-15.7,27.9-31.4,41.9-47.2
			c0.6-0.7,1.1-1.6,1.6-2.3"/>
		<path class="st0" d="M347.4,372"/>
		<path class="st0" d="M345.5,374"/>
		<path d="M269,447.3c-1-1.2-2.5-1.6-3.9-2.1c3.7-3,7.8-5.2,12.7-5.8c0.3,0,0.8,0.7,1.1,1.2c0.1,0.2-0.1,0.6-0.2,0.9
			c-0.1,0.3-0.4,0.6-0.6,0.7C275,443.9,272.3,446.1,269,447.3z"/>
		<path d="M366.4,349.8c-2-0.4-3.6,0.9-5.4,1.3c-1-1-2.3-1.5-3.7-1.8c1.2-2.1,2.9-3.6,5.3-4.3C363.9,346.6,365.2,348.2,366.4,349.8z
			"/>
		<path d="M305.6,479.9c-0.2,1.6-1,2.7-2.4,3.4C303.4,481.7,304.2,480.6,305.6,479.9z"/>
		<path d="M305.4,474c0.4-1.3,1-1.9,1.9-1.9C307,473.1,306.4,473.8,305.4,474z"/>
		<path d="M298,481.7c0.3-1.2,0.8-1.7,1.7-1.7C299.4,480.9,298.9,481.5,298,481.7z"/>
		<path d="M307.3,477.9c-0.1,1.1-0.7,1.8-1.8,2.2C305.8,479,306.4,478.3,307.3,477.9z"/>
		<path d="M299.8,479.9c0.3-1.2,0.9-1.8,1.8-1.8C301.3,479,300.7,479.6,299.8,479.9z"/>
		<path d="M308.9,475.8c-0.1,1.1-0.6,1.8-1.7,2.1"/>
		<path d="M301.7,477.9c0.3-1.3,0.9-1.9,1.8-1.9C303.2,477,302.6,477.6,301.7,477.9z"/>
		<path d="M303.5,476c0.3-1.3,0.9-1.9,1.8-1.9C305.1,475.1,304.5,475.7,303.5,476z"/>
		<path d="M303.1,483.5c-0.1,1.1-0.6,1.8-1.6,2.2C301.7,484.6,302.2,483.9,303.1,483.5z"/>
		<path class="st4" d="M347.5,364.1c0.5-0.5,1.1-1.1,1.6-1.6"/>
		<path class="st4" d="M351,360.6"/>
		<path class="st4" d="M355.1,356.7c0.6-0.6,1.3-1.2,1.9-1.8"/>
		<path class="st4" d="M353.2,358.5c0.6-0.6,1.2-1.1,1.9-1.7"/>
		<path class="st4" d="M357.1,354.8c0.6-0.6,1.3-1.2,1.9-1.8"/>
	</g>
</g>
</svg>
