<?xml version="1.0" encoding="UTF-8"?>
<svg id="Layer_1" data-name="Layer 1" xmlns="http://www.w3.org/2000/svg" viewBox="0 0 112.46 138.1" fill="#FFFFFF">
  <defs>
    <style>
      .cls-1 {
        isolation: isolate;
      }
    </style>
  </defs>
  <g id="LOGO">
    <g id="PARTIE_TYPOGRAPHIQUE" data-name="PARTIE TYPOGRAPHIQUE">
      <g id="Y_O_U_T_H_M_A_R_K_E_T_E_R_S" data-name="Y O U T H   M A R K E T E R S">
        <g class="cls-1">
          <path d="M27.7,91.26h-.85v-1.25l-1.18-2.84h.93l.67,1.79,.67-1.79h.93l-1.17,2.84v1.25Z"/>
          <path d="M30.16,89.32v-.21c0-1.42,.5-2.01,1.56-2.01s1.56,.59,1.56,2.01v.21c0,1.42-.5,2.01-1.56,2.01s-1.56-.59-1.56-2.01Zm1.59,1.28c.52,0,.67-.46,.67-1.28v-.21c0-.82-.15-1.28-.67-1.28h-.05c-.52,0-.68,.46-.68,1.28v.21c0,.82,.15,1.28,.68,1.28h.05Z"/>
          <path d="M34.81,89.96v-2.8h.85v2.77c0,.44,.14,.66,.62,.66s.62-.22,.62-.66v-2.77h.85v2.8c0,.89-.36,1.37-1.48,1.37s-1.47-.47-1.47-1.37Z"/>
          <path d="M40.87,91.26h-.85v-3.36h-.94v-.73h2.75v.73h-.95v3.36Z"/>
          <path d="M46.15,87.17v4.09h-.85v-1.72h-1.19v1.72h-.85v-4.09h.85v1.64h1.19v-1.64h.85Z"/>
          <path d="M52.31,91.26h-.87l-.73-2.62,.03,.82v1.8h-.85v-4.09h1.25l.73,2.62,.73-2.62h1.26v4.09h-.85v-1.8l.02-.82-.73,2.62Z"/>
          <path d="M57.41,87.16l1.02,4.1h-.91l-.2-.88h-1l-.19,.88h-.91l1.02-4.1h1.17Zm-.92,2.49h.67l-.34-1.51-.34,1.51Z"/>
          <path d="M60.71,91.26h-.85v-4.09h1.34c.67,0,1.42,.17,1.42,1.26v.1c0,.66-.28,.99-.65,1.14l.65,1.59h-.92l-.56-1.47h-.44v1.47Zm.53-2.21c.23,0,.52-.09,.52-.55v-.05c0-.46-.29-.55-.52-.55h-.53v1.15h.53Z"/>
          <path d="M65.03,88.77l1.01-1.61h1.03l-1.15,1.64,1.15,2.45h-.95l-.75-1.67-.35,.49v1.18h-.85v-4.09h.85v1.61Z"/>
          <path d="M71.01,87.17v.73h-1.65v.9h1.39v.74h-1.39v.99h1.65v.73h-2.5v-4.09h2.5Z"/>
          <path d="M74.07,91.26h-.85v-3.36h-.94v-.73h2.74v.73h-.95v3.36Z"/>
          <path d="M78.96,87.17v.73h-1.65v.9h1.39v.74h-1.39v.99h1.65v.73h-2.5v-4.09h2.5Z"/>
          <path d="M81.37,91.26h-.85v-4.09h1.34c.67,0,1.42,.17,1.42,1.26v.1c0,.66-.28,.99-.65,1.14l.65,1.59h-.92l-.56-1.47h-.44v1.47Zm.53-2.21c.23,0,.53-.09,.53-.55v-.05c0-.46-.29-.55-.53-.55h-.53v1.15h.53Z"/>
          <path d="M84.75,88.37v-.06c0-.74,.51-1.22,1.44-1.22,1.01,0,1.45,.45,1.45,1.41v.11h-.85c0-.54-.16-.78-.59-.78h-.05c-.34,0-.54,.19-.54,.45v.03c0,.3,.12,.46,.72,.54,.89,.12,1.34,.42,1.34,1.19v.05c0,.79-.52,1.24-1.48,1.24s-1.47-.43-1.47-1.42v-.05h.85c0,.51,.21,.73,.6,.73h.05c.39,0,.59-.21,.59-.48v-.03c0-.29-.15-.46-.75-.54-.89-.12-1.31-.44-1.31-1.18Z"/>
        </g>
      </g>
      <g id="T_U_N_I_S_I_A_N" data-name="T U N I S I A N">
        <g class="cls-1">
          <path d="M19.01,80.1h-2.4v-9.47h-2.66v-2.07h7.74v2.07h-2.68v9.47Z"/>
          <path d="M25.65,76.45v-7.89h2.4v7.82c0,1.23,.38,1.85,1.75,1.85s1.76-.62,1.76-1.85v-7.82h2.4v7.89c0,2.52-1.02,3.85-4.16,3.85s-4.14-1.33-4.14-3.85Z"/>
          <path d="M46.96,80.1h-2.53l-3.73-7.16,.07,2.32v4.84h-2.26v-11.54h2.53l3.71,7.16-.07-2.32v-4.84h2.28v11.54Z"/>
          <path d="M54.05,80.1h-2.4v-11.54h2.4v11.54Z"/>
          <path d="M58.49,71.96v-.16c0-2.09,1.44-3.43,4.07-3.43,2.84,0,4.08,1.26,4.08,3.97v.31h-2.4c0-1.51-.46-2.21-1.67-2.21h-.13c-.96,0-1.52,.53-1.52,1.27v.07c0,.84,.34,1.29,2.03,1.51,2.52,.34,3.79,1.2,3.79,3.34v.15c0,2.22-1.46,3.51-4.17,3.51s-4.16-1.21-4.16-4v-.13h2.4c0,1.45,.59,2.06,1.7,2.06h.13c1.11,0,1.66-.59,1.66-1.36v-.07c0-.83-.43-1.29-2.1-1.51-2.52-.34-3.7-1.23-3.7-3.32Z"/>
          <path d="M73.5,80.1h-2.4v-11.54h2.4v11.54Z"/>
          <path d="M83.57,68.53l2.89,11.57h-2.56l-.56-2.49h-2.83l-.55,2.49h-2.58l2.89-11.57h3.3Zm-2.61,7.02h1.89l-.95-4.25-.95,4.25Z"/>
          <path d="M98.91,80.1h-2.53l-3.73-7.16,.07,2.32v4.84h-2.26v-11.54h2.53l3.71,7.16-.07-2.32v-4.84h2.28v11.54Z"/>
        </g>
      </g>
    </g>
  </g>
  <g id="RECT_VECT" data-name="RECT VECT">
    <g id="layer101">
      <path d="M70.77,59.61c-2.09-.05-6.07-.12-8.82-.15-4.52-.06-19.97-.28-21.02-.29h-.43s-.01-4.48-.01-4.48c0-2.47-.06-6.01-.12-7.88-.1-3.09-.25-10.88-.43-21.96l-.07-4.14,4.14,.07c8.84,.15,16.74,.31,19.71,.43,1.72,.06,5.1,.12,7.52,.12,3.37,.01,4.43,.05,4.52,.15,.07,.1,.12,2.13,.13,5.96,0,3.21,.02,6.11,.06,6.46,.06,.74,.25,11.26,.36,19.44,.03,3.11,.08,5.81,.09,6v.35s-.91,.01-.91,.01c-.51,.01-2.63-.02-4.73-.08Zm-20.13-1.37c3.26-.07,9.87-.16,14.7-.22,7.27-.09,8.78-.14,8.92-.28,.14-.13,.18-1.55,.27-8.28,.07-4.46,.16-10.12,.23-12.56,.06-2.45,.12-6.74,.12-9.54v-5.11h-3.94c-2.18,0-5.18,.06-6.67,.12-1.49,.07-5.8,.17-9.57,.23-3.77,.07-8.14,.15-9.7,.18l-2.84,.08-.12,3.99c-.06,2.19-.12,5.76-.14,7.91-.01,2.16-.07,5.35-.14,7.09-.14,4.08-.28,16.07-.18,16.31,.09,.22,.37,.22,9.08,.07Z"/>
      <path d="M60.4,55.65c-.4-.32-.53-.75-.53-1.82,0-.88,.05-1.13,.31-1.68,.78-1.7,2.21-3.54,5.88-7.6,1.38-1.53,1.82-2.09,1.72-2.19-.15-.16-.66,.23-2.32,1.81-5.89,5.59-6.21,5.92-8.48,8.74-.46,.58-.92,1.06-1,1.06-.23,0-.5-.63-.5-1.18,0-.63,.31-1.52,1.1-3.15,1.03-2.13,2.32-4.29,3.31-5.53,.52-.66,.7-1.11,.44-1.11-.13,0-1.12,1.02-2.61,2.66-.44,.5-1.44,1.6-2.24,2.48-2.08,2.31-5.17,5.42-5.76,5.83-.29,.18-.61,.33-.73,.33s-.3,.05-.42,.12c-.27,.15-1.21,.46-1.27,.42-.07-.08,1.74-1.9,5.4-5.42,7.26-6.97,8.78-8.28,10.02-8.61,.27-.07,.58-.1,.68-.06,.15,.06,.14,.09-.05,.32-.25,.29-.36,.45-1.67,2.39-.54,.8-1.02,1.52-1.06,1.61s-.18,.35-.32,.57c-.13,.21-.46,.83-.75,1.37-.28,.54-.57,1.05-.62,1.12-.07,.08-.15,.3-.18,.5-.06,.29-.03,.37,.1,.37,.09,0,1.15-.87,2.35-1.93,5.78-5.13,6.64-5.8,7.52-5.8,.18,0,.5-.09,.68-.2,.29-.16,.37-.17,.53-.05,.1,.08,.18,.22,.18,.29-.01,.17-2.01,2.76-2.65,3.41-.09,.1-.57,.63-1.04,1.2s-1.13,1.34-1.46,1.73c-.62,.73-3.05,4.04-3.18,4.34l-.17,.35c-.45,.8-.54,1.36-.39,2.36,.06,.38,.13,.77,.15,.87,.06,.24-.69,.29-.98,.07Z"/>
      <path d="M51.92,45.37c-.88-1.12,.76-3.21,3.66-4.67,1.18-.59,1.56-.7,1.29-.39-.08,.09-.2,.17-.25,.17-.43,0-3.51,2.84-3.91,3.61-.13,.23-.28,.43-.33,.43-.18,0-.14,.69,.05,.76,.24,.09,1.31-.74,2.65-2.03,1.14-1.1,2.49-2.66,2.49-2.88,0-.06,.1-.17,.24-.25,.21-.13,1.03-1.05,3.71-4.13,.7-.81,3.32-3.67,4.01-4.39,.37-.38,.46-.6,.32-.81-.07-.13-.66,.39-2.43,2.16-3.65,3.6-5.44,4.99-7.29,5.62-1.18,.4-1.93,.1-2.25-.88-.28-.83,.32-2.08,1.75-3.7,.59-.66,2.21-2.17,5.04-4.68,2.08-1.83,2.08-1.85,.48-1.85-1.08,0-1.8,.15-2.5,.51-.14,.08-.61,.53-1.05,1.02-2.19,2.41-2.66,2.94-3.28,3.67-.37,.44-.76,.89-.87,.99-.21,.22-1.37,1.61-1.73,2.1-1.25,1.66-1.63,2.2-1.89,2.71-.16,.32-.36,.6-.44,.62-.07,.02-.29-.12-.48-.32-.47-.48-.47-1.02,0-1.9,.53-1.02,1.44-2.15,2.93-3.62,.73-.73,1.33-1.37,1.33-1.42,0-.18,1.45-1.96,2.18-2.68,.39-.38,.7-.75,.7-.82,0-.21-.3-.28-.72-.15-.21,.06-1.05,.16-1.88,.22-.82,.07-1.98,.16-2.58,.22s-1.2,.06-1.35,.01c-.35-.14-1.08-.8-1.08-.97,0-.27,.39-.5,1.42-.81,.82-.27,1.04-.3,1.18-.18,.17,.15,.63,.12,1.79-.1,2.99-.59,6.26-.87,8.5-.7,1.34,.09,1.53,.13,2.15,.46,.98,.54,1.25,1.06,.6,1.18-.14,.02-.24,.15-.27,.32-.12,.8-2.41,3.35-4.93,5.48-1.04,.88-3.17,2.96-3.17,3.1,0,.06-.08,.2-.18,.31-.23,.25-.13,.8,.14,.8,.7,0,4.53-2.7,8.59-6.06,1.98-1.64,5.48-4.66,5.86-5.06,.44-.45,.84-.53,1.18-.23,.2,.17,.12,.29-1.37,1.94-1.78,1.98-2.39,2.7-3.14,3.69-.29,.38-.68,.9-.89,1.15-.35,.45-1.5,1.98-2.51,3.36-.68,.92-1.27,1.76-1.75,2.48-.53,.8-1.93,2.46-2.98,3.53-1.97,2.02-4.37,3.39-5.96,3.39-.44,0-.58-.06-.77-.3Z"/>
    </g>
  </g>
</svg>